<svg width="76" height="55" viewBox="0 0 76 55" fill="none" xmlns="http://www.w3.org/2000/svg">
<rect width="76" height="55" rx="4" fill="#0060AF"/>
<path fill-rule="evenodd" clip-rule="evenodd" d="M15.6313 32.7703C15.6313 32.0322 15.6397 30.0592 15.6206 29.8161C15.6372 26.8802 13.4022 24.8092 11.9902 24.9706C11.0131 25.0516 10.1941 25.4321 9.75461 26.5267C9.34693 27.5469 9.71143 28.9038 11.0663 29.2222C12.5148 29.5641 13.3609 29.8486 13.9732 30.25C14.7233 30.7414 15.3357 31.6802 15.3519 32.7715" fill="white"/>
<path fill-rule="evenodd" clip-rule="evenodd" d="M15.0258 32.7716C15.0306 31.8254 14.4776 30.9887 13.7549 30.5391C13.1139 30.1417 12.2532 29.8807 10.8648 29.5443C10.4356 29.4394 9.9867 29.2065 9.84772 28.9097C9.48008 29.2635 9.4133 30.0589 9.47798 30.5239C9.55316 31.0617 10.2113 31.9483 11.2024 31.983C11.8076 32.0062 12.5728 31.8586 12.9397 31.7841C13.5728 31.6536 14.5743 32.0322 14.7337 32.7704" fill="white"/>
<path fill-rule="evenodd" clip-rule="evenodd" d="M16.1432 20.3949C14.4627 20.3949 13.0114 21.4533 13.0164 23.2847C13.0217 24.8248 14.3185 25.6493 14.7814 26.2381C15.4807 27.1256 15.8592 28.1759 15.8983 29.7831C15.9291 31.0622 15.9275 32.3253 15.9343 32.773H16.3051C16.2988 32.3046 16.282 30.9637 16.3011 29.7436C16.3263 28.1359 16.7184 27.1256 17.418 26.2381C17.8849 25.6493 19.1805 24.8248 19.1833 23.2847C19.1898 21.4533 17.739 20.3949 16.0602 20.3949" fill="white"/>
<path fill-rule="evenodd" clip-rule="evenodd" d="M16.5697 32.7703C16.5697 32.0322 16.5609 30.0592 16.5796 29.8161C16.5632 26.8802 18.7969 24.8092 20.2101 24.9706C21.1871 25.0516 22.0051 25.4321 22.446 26.5267C22.8532 27.5469 22.4867 28.9038 21.1336 29.2222C19.6841 29.5641 18.8392 29.8486 18.2254 30.25C17.4761 30.7414 16.9065 31.6802 16.8891 32.7715" fill="white"/>
<path fill-rule="evenodd" clip-rule="evenodd" d="M17.1747 32.7716C17.1695 31.8254 17.7223 30.9887 18.4429 30.5391C19.0867 30.1417 19.9482 29.8807 21.3354 29.5443C21.7655 29.4394 22.2139 29.2065 22.3504 28.9097C22.7198 29.2635 22.7866 30.0589 22.7217 30.5239C22.6451 31.0617 21.9885 31.9483 20.9992 31.983C20.3944 32.0062 19.625 31.8586 19.2596 31.7841C18.629 31.6536 17.6247 32.0322 17.4646 32.7704" fill="white"/>
<path fill-rule="evenodd" clip-rule="evenodd" d="M17.6931 35.8262L17.4782 34.3277L17.9972 34.2525C18.1235 34.2362 18.2773 34.2572 18.3388 34.3327C18.4068 34.4116 18.4276 34.4769 18.4408 34.5804C18.4605 34.7087 18.4217 34.8566 18.2707 34.9304V34.9349C18.4392 34.9349 18.5411 35.0506 18.5708 35.246C18.575 35.2874 18.588 35.3869 18.575 35.47C18.5408 35.6679 18.4173 35.7317 18.2086 35.7595L17.6931 35.8262ZM18.0271 35.558C18.0887 35.5495 18.1511 35.5463 18.1999 35.5166C18.2747 35.47 18.2679 35.3705 18.2574 35.2964C18.2315 35.1339 18.1871 35.072 18.0065 35.0975L17.8929 35.1142L17.9649 35.5662L18.0271 35.558ZM17.9186 34.8654C17.9873 34.8549 18.0803 34.8469 18.1191 34.7846C18.1395 34.7431 18.1654 34.71 18.1483 34.6175C18.1271 34.508 18.0892 34.4399 17.9432 34.4662L17.8074 34.4871L17.8611 34.8711L17.9186 34.8654Z" fill="white"/>
<path fill-rule="evenodd" clip-rule="evenodd" d="M19.9415 34.9249C19.9455 34.9528 19.9502 34.9838 19.952 35.0117C19.9939 35.2849 19.9415 35.5113 19.6198 35.5736C19.1441 35.6609 19.053 35.3789 18.9695 34.9838L18.9249 34.77C18.8593 34.3921 18.8312 34.106 19.2948 34.0176C19.5562 33.9722 19.7289 34.0716 19.8007 34.32C19.8119 34.3571 19.8259 34.3936 19.8312 34.431L19.5467 34.4871C19.5139 34.3936 19.4703 34.2268 19.3424 34.2409C19.1127 34.2674 19.1885 34.5402 19.2121 34.6544L19.2976 35.0647C19.3233 35.1887 19.3744 35.3869 19.5731 35.3487C19.7345 35.3178 19.664 35.0777 19.6497 34.9792" fill="white"/>
<path fill-rule="evenodd" clip-rule="evenodd" d="M20.3979 35.3783L20.2996 33.8276L20.6816 33.7162L21.4828 35.0649L21.1819 35.1509L20.9921 34.8081L20.658 34.904L20.7012 35.2937L20.3979 35.3783ZM20.63 34.6535L20.8715 34.5867L20.5508 33.9593L20.63 34.6535Z" fill="white"/>
<path fill-rule="evenodd" clip-rule="evenodd" d="M10.9591 34.2058C11.0787 33.8404 11.1857 33.5711 11.6422 33.6906C11.8864 33.7559 12.0378 33.8586 12.0306 34.1295C12.0294 34.1898 12.0086 34.2514 11.9949 34.3109L11.7109 34.2361C11.7481 34.0863 11.7717 33.9676 11.5787 33.9108C11.3556 33.8524 11.3013 34.1108 11.2705 34.2224L11.1549 34.6288C11.1182 34.7495 11.0742 34.949 11.2705 35.0006C11.4327 35.0422 11.531 34.8902 11.5897 34.6682L11.3911 34.6177L11.4598 34.3827L11.9271 34.5261L11.7053 35.3096L11.4902 35.2539L11.5387 35.0883H11.5325C11.4334 35.2238 11.3128 35.238 11.207 35.2185C10.7397 35.0979 10.7885 34.8063 10.9 34.4166" fill="white"/>
<path fill-rule="evenodd" clip-rule="evenodd" d="M12.6983 34.8677L12.5576 35.5052L12.2408 35.4399L12.5784 33.9514L13.1184 34.0678C13.4345 34.1331 13.53 34.2673 13.4852 34.5441C13.4597 34.7029 13.3777 34.8739 13.1775 34.86L13.1754 34.8575C13.3446 34.914 13.359 34.9956 13.3294 35.1364C13.3167 35.1965 13.2287 35.5601 13.2894 35.6189L13.2915 35.6636L12.9637 35.5818C12.9501 35.4811 12.9966 35.2998 13.0149 35.1993C13.0333 35.1105 13.0628 34.9853 12.9684 34.9383C12.8947 34.9006 12.867 34.9024 12.7835 34.8842L12.6983 34.8677ZM12.7524 34.6371L12.9656 34.6921C13.0952 34.7101 13.1672 34.646 13.1927 34.4964C13.2158 34.3593 13.1859 34.3059 13.0697 34.2793L12.841 34.2349L12.7524 34.6371Z" fill="white"/>
<path fill-rule="evenodd" clip-rule="evenodd" d="M14.7302 34.2838L15.0435 34.3185L14.9085 35.365C14.843 35.6968 14.7087 35.8417 14.3265 35.7965C13.9377 35.7494 13.8454 35.5804 13.8689 35.246L14.0049 34.2004L14.3206 34.2348L14.1851 35.257C14.1706 35.368 14.1439 35.5325 14.3505 35.5525C14.5339 35.5659 14.5755 35.4497 14.5963 35.3054" fill="white"/>
<path fill-rule="evenodd" clip-rule="evenodd" d="M15.3887 35.8536L15.4831 34.3573L16.0849 34.3822C16.3695 34.3957 16.4438 34.6174 16.435 34.8291C16.4266 34.9579 16.3847 35.1016 16.2672 35.1796C16.1709 35.2459 16.0469 35.2616 15.9322 35.2562L15.7361 35.2459L15.6969 35.873L15.3887 35.8536ZM15.7448 35.0176L15.9043 35.0262C16.0338 35.0307 16.1196 34.9817 16.1308 34.8001C16.1373 34.6258 16.0681 34.5961 15.9003 34.589L15.774 34.5849L15.7448 35.0176Z" fill="white"/>
<path fill-rule="evenodd" clip-rule="evenodd" d="M57.8402 21.8411L55.448 25.9882C54.5451 25.2878 53.4427 24.7725 52.0359 24.7725C48.7068 24.7725 47.3544 27.1424 47.3544 28.8119C47.3544 30.0513 48.204 31.8795 51.1662 31.8795C52.4097 31.8795 54.1771 31.0535 54.6858 30.6775L52.32 35.4888C51.1922 35.7037 50.8216 35.8369 49.8671 35.8651C44.5652 36.0162 42.423 32.9055 42.4244 29.7272C42.428 25.5252 46.3394 20.4151 52.824 20.4151C53.2212 20.4151 53.7072 20.5465 54.1227 20.6919L54.5428 20.1788" fill="white"/>
<path fill-rule="evenodd" clip-rule="evenodd" d="M67.711 20.309L68.3884 35.381H63.347L63.3442 32.7962H59.9064L58.7752 35.381H53.3076L59.0238 24.6183L57.7348 24.6103L60.1837 20.309H67.711ZM63.3114 24.9198L61.3679 29.3038H63.3701L63.3114 24.9198Z" fill="white"/>
<path fill-rule="evenodd" clip-rule="evenodd" d="M39.2417 20.309C41.7383 20.3224 43.1491 21.6167 43.1491 23.4862C43.1491 25.2099 41.6612 26.7355 40.0279 27.5244C41.7094 28.115 41.8549 29.5642 41.8549 30.5894C41.8549 33.0666 39.2525 35.3811 35.8696 35.3811H28.4918L31.3696 24.7683L30.1875 24.7618L32.604 20.309C32.604 20.309 37.2115 20.2957 39.2417 20.309ZM36.7923 26.4199C37.3087 26.4199 38.2206 26.295 38.4485 25.3405C38.6984 24.3042 37.8426 24.2763 37.4321 24.2763L35.9654 24.2703L35.4539 26.4199H36.7923ZM34.7186 29.0833L34.0433 31.5604H35.7705C36.4498 31.5604 37.3759 31.2382 37.6028 30.4321C37.8269 29.6238 37.1795 29.0833 36.5026 29.0833H34.7186Z" fill="white"/>
<path fill-rule="evenodd" clip-rule="evenodd" d="M16.2097 37.2331C13.655 37.2331 11.03 36.6322 8.4082 35.4437L8.34387 35.4135L8.3131 35.3509C7.13657 32.979 6.51422 30.3849 6.51422 27.8467C6.51422 25.3122 7.11105 22.8289 8.28828 20.4602L8.32079 20.3972L8.38635 20.3658C10.8116 19.2685 13.4204 18.7129 16.1432 18.7129C18.6793 18.7129 21.3881 19.3315 23.9751 20.5053L24.0413 20.5335L24.0721 20.5976C25.271 23.0132 25.9033 25.6068 25.9033 28.1031C25.9033 30.5894 25.2962 33.075 24.0957 35.4891L24.0642 35.5524L23.9975 35.5818C21.6091 36.6616 18.916 37.2331 16.2097 37.2331ZM8.65085 35.1185C11.1976 36.2628 13.7379 36.8405 16.2097 36.8405C18.8305 36.8405 21.4369 36.2934 23.7573 35.2562C24.9098 32.9169 25.4941 30.5093 25.4941 28.1031C25.4941 25.687 24.8843 23.174 23.7309 20.8293C21.2203 19.7022 18.5984 19.1044 16.1432 19.1044C13.5073 19.1044 10.9807 19.6384 8.62882 20.6919C7.49985 22.9877 6.92522 25.3935 6.92522 27.8467C6.92522 30.3042 7.52222 32.8184 8.65085 35.1185Z" fill="white"/>
</svg>
