<svg width="76" height="54" viewBox="0 0 76 54" fill="none" xmlns="http://www.w3.org/2000/svg">
<rect width="76" height="54" rx="4" fill="white"/>
<path fill-rule="evenodd" clip-rule="evenodd" d="M12.325 32.0657L14.9042 35.2429H8.51854L12.325 32.0657ZM11.5139 31.0843L6.51873 35.2526L6.51668 25.0011L11.5139 31.0843ZM23.5329 20.7616C23.5329 20.7616 22.4363 20.2453 21.1624 20.3207C19.7059 20.406 18.4875 20.9616 17.787 21.6947C17.3462 22.1553 16.859 22.7172 16.6142 23.3274C16.2593 24.2101 16.1835 25.3766 16.1835 25.3766C16.1835 25.3766 15.6741 24.9465 15.0359 23.6934C14.2939 22.2358 14.0909 21.3528 13.9904 20.3455C13.9009 19.4616 14.0414 18.5875 14.0414 18.5875H23.5329V20.7616ZM23.5329 23.6679V30.1318C23.5329 30.1318 22.9428 30.3573 22.4615 30.3573C21.9802 30.3573 21.1605 30.2863 20.2085 29.7657C19.2635 29.2493 18.7404 28.6245 18.3349 28.0584C17.9236 27.4826 17.584 26.6843 17.4831 26.1091C17.402 25.6489 17.3145 24.5011 17.787 23.5682C18.0434 23.0619 18.7316 22.1941 20.0566 22.1448C21.1365 22.1036 21.7354 22.386 22.2843 22.6857C23.3289 23.257 23.5329 23.6679 23.5329 23.6679ZM13.1977 29.6779L14.9098 28.2583C14.3641 27.565 14.22 27.3038 13.61 26.4087C12.9855 25.4926 12.4624 24.4847 12.0151 23.3021C11.5309 22.0211 11.414 21.3019 11.4675 20.3455C11.5344 19.1288 11.8126 18.5875 11.8126 18.5875H6.51422L6.51668 21.4281C6.51668 21.4281 10.5724 26.4839 13.1977 29.6779ZM18.0895 35.2383H23.5329V31.2901C23.5329 31.2901 22.1827 31.9062 21.3051 31.9559C20.7826 31.9863 20.2755 32.0063 19.4573 31.7897C18.5477 31.5493 18.0309 31.315 17.1879 30.6233C16.5108 30.0685 15.7366 29.2493 15.7366 29.2493L14.0145 30.6775C14.8135 31.6496 15.4036 32.3573 15.5842 32.5477C16.3609 33.3642 16.69 33.6642 17.2131 33.9552C17.736 34.2467 19.4831 34.231 19.4831 34.231L18.0895 35.2383Z" fill="#E94E0F"/>
<path fill-rule="evenodd" clip-rule="evenodd" d="M64.7009 31.7263C64.7009 32.8703 64.856 34.7507 63.5681 35.2084V35.2846H68.4595V35.2084C67.1724 34.7256 67.3268 32.8703 67.3268 31.7263V22.1453C67.3268 21.0019 67.1724 19.1212 68.4595 18.6384V18.5621H63.5681V18.6384C64.8812 19.1212 64.7009 20.9765 64.7009 22.1453V31.7263ZM46.7651 22.1453L55.5957 33.2007C56.7281 34.649 57.5267 35.488 59.3544 36.0976V21.8404C59.3544 20.4174 59.3544 19.4006 60.6935 18.6384V18.5621H56.162V18.6384C57.5267 19.4006 57.5005 20.4174 57.5005 21.8404V31.4724L48.0784 19.731L47.7175 19.2227C47.5377 19.0195 47.4348 18.8925 47.3318 18.5876V18.5621H43.5725V18.6384C44.9113 19.4006 44.9113 20.4174 44.9113 21.8404V31.9811C44.9113 33.4039 44.9113 34.4203 43.5473 35.2084V35.2846H48.1042V35.2084C46.7395 34.4203 46.7651 33.4039 46.7651 31.9811V22.1453ZM32.3709 25.297V20.3159L34.0955 20.1376C35.6404 19.9851 37.2877 20.9002 37.2877 22.654C37.2877 24.7379 34.8934 25.297 33.2205 25.297H32.3709ZM32.3709 33.2514V26.9739L34.1727 26.8724C36.4384 26.7453 38.8582 27.813 38.8582 30.2781C38.8582 32.6924 36.722 33.658 34.6104 33.4548L32.3709 33.2514ZM29.7446 31.7011C29.7446 32.8703 29.8992 34.7256 28.6116 35.2084V35.2846H32.8596C34.7904 35.2846 36.8248 35.3611 38.6266 34.4969C40.3515 33.6835 41.7162 32.006 41.7162 30.049C41.7162 27.5589 39.8364 26.0338 37.5194 25.5505C38.9871 24.9155 40.0937 23.9498 40.0937 22.247C40.0937 19.9851 38.1119 18.5621 34.7138 18.5621H28.6116V18.6384C29.9253 19.1212 29.7446 20.9765 29.7446 22.1198V31.7011Z" fill="#005B6A"/>
</svg>
