<svg width="76" height="54" viewBox="0 0 76 54" fill="none" xmlns="http://www.w3.org/2000/svg">
<rect width="76" height="54" rx="4" fill="#00529C"/>
<path fill-rule="evenodd" clip-rule="evenodd" d="M22.5299 23.4263H26.1522C27.619 23.4263 28.7125 24.0719 28.7125 25.4309C28.7125 26.4274 28.2056 26.9823 27.325 27.2764V27.2988C28.3746 27.5145 28.9162 28.0808 28.9162 29.0428C28.9162 30.9345 27.257 31.3305 25.8469 31.3305H22.5299V23.4263ZM24.628 26.5518H25.2153C25.9035 26.5518 26.6148 26.3819 26.6148 25.7132C26.6148 24.9894 25.9375 24.9208 25.2372 24.9208H24.628V26.5518ZM24.628 29.836H25.2496C26.0162 29.836 26.8171 29.7226 26.8171 28.9184C26.8171 28.0584 25.9938 27.9785 25.2716 27.9785H24.628V29.836Z" fill="white"/>
<path fill-rule="evenodd" clip-rule="evenodd" d="M31.6707 23.4263H34.2434L37.2787 31.3305H34.9766L34.3904 29.6436H31.434L30.8131 31.3305H28.6807L31.6707 23.4263ZM32.9575 25.0573H32.9338L31.919 28.1491H33.8934L32.9575 25.0573Z" fill="white"/>
<path fill-rule="evenodd" clip-rule="evenodd" d="M37.5709 23.4263H40.2449L42.9079 28.7943H42.9299L42.8966 23.4263H44.8154V31.3305H42.2087L39.4546 25.929H39.433L39.5003 31.3305H37.5709V23.4263Z" fill="white"/>
<path fill-rule="evenodd" clip-rule="evenodd" d="M45.5276 23.4263H47.6261V26.6546H47.6487L50.0174 23.4263H52.5459L49.6342 27.1064L52.7715 31.3305H50.0964L47.6487 27.741H47.6261V31.3305H45.5276V23.4263Z" fill="white"/>
<path fill-rule="evenodd" clip-rule="evenodd" d="M55.3734 23.4263H58.9957C60.4622 23.4263 61.5571 24.0719 61.5571 25.4309C61.5571 26.4274 61.0501 26.9823 60.1696 27.2764V27.2988C61.2188 27.5145 61.7604 28.0808 61.7604 29.0428C61.7604 30.9345 60.1016 31.3305 58.6917 31.3305H55.3734V23.4263ZM57.4725 26.5518H58.0588C58.7474 26.5518 59.4576 26.3819 59.4576 25.7132C59.4576 24.9894 58.7814 24.9208 58.0821 24.9208H57.4725V26.5518ZM57.4725 29.836H58.0935C58.86 29.836 59.6616 29.7226 59.6616 28.9184C59.6616 28.0584 58.838 27.9785 58.1158 27.9785H57.4725V29.836Z" fill="white"/>
<path fill-rule="evenodd" clip-rule="evenodd" d="M62.2254 23.4263H65.9716C67.3705 23.4263 68.5107 24.0601 68.5107 25.4199C68.5107 26.4729 68.0141 27.175 66.9989 27.4125V27.4349C67.6744 27.6166 67.7204 28.2163 68.1154 29.179L68.883 31.3305H66.6942L66.2426 29.9045C65.8137 28.5455 65.5427 28.2049 64.7641 28.2049H64.3238V31.3305H62.2254V23.4263ZM64.3238 26.7104H64.8771C65.554 26.7104 66.4119 26.6873 66.4119 25.7928C66.4119 25.0573 65.6777 24.9208 64.8771 24.9208H64.3238V26.7104Z" fill="white"/>
<mask id="mask0_41_137" style="mask-type:alpha" maskUnits="userSpaceOnUse" x="4" y="19" width="68" height="17">
<path fill-rule="evenodd" clip-rule="evenodd" d="M4.34283 35.3223H71.5596V19.4401H4.34283V35.3223Z" fill="white"/>
</mask>
<g mask="url(#mask0_41_137)">
<path fill-rule="evenodd" clip-rule="evenodd" d="M69.4612 31.3305H71.5596V23.4263H69.4612V31.3305Z" fill="white"/>
<path fill-rule="evenodd" clip-rule="evenodd" d="M17.7407 19.4399H6.75681C5.42358 19.4399 4.34277 20.5515 4.34277 21.923V21.9492V32.8398C4.34277 34.1978 5.40366 35.3018 6.71972 35.3221H17.7349C19.0685 35.3221 20.1496 34.2105 20.1496 32.8398L20.1548 21.923C20.1548 20.5515 19.0743 19.4399 17.7407 19.4399ZM8.06257 34.0496L7.46327 34.0561C6.73793 34.0561 6.14996 33.4581 6.14996 32.7201L6.14652 32.615V22.5331L6.1503 21.9902C6.17743 21.2761 6.71801 20.7011 7.42618 20.7011H8.64436C9.74818 20.7011 10.6435 21.6645 10.6435 22.8013C10.6435 23.3631 10.4241 23.8732 10.0686 24.2441L6.96047 27.4093L9.87354 30.3863C10.2493 30.7748 10.4763 31.2856 10.4763 31.845C10.4763 33.0628 9.39547 34.0496 8.06257 34.0496ZM17.0181 34.0396L11.587 34.0372C11.587 34.0372 12.2151 32.675 12.2151 31.8319C12.2151 30.8041 11.8724 29.8855 11.3362 29.2778L9.47858 27.3773L11.3747 25.4112C11.939 24.8787 12.314 23.9335 12.314 22.8571C12.314 22.0047 12.0791 21.2495 11.701 20.7011H13.017C14.1212 20.7011 15.0166 21.6645 15.0166 22.8013C15.0166 23.3631 14.7974 23.8732 14.442 24.2441L11.3933 27.3762L17.7253 33.8566C17.5247 33.9834 17.2716 34.0396 17.0181 34.0396ZM18.3445 32.0163L13.8066 27.3748L15.9679 25.1703C16.4082 24.6184 16.687 23.7867 16.687 22.8571C16.687 21.9992 16.4487 21.2257 16.0671 20.677L17.0346 20.706C17.76 20.706 18.3479 21.305 18.3479 22.0426L18.3445 32.0163Z" fill="white"/>
</g>
</svg>
