<svg width="76" height="54" viewBox="0 0 76 54" fill="none" xmlns="http://www.w3.org/2000/svg">
<rect width="76" height="54" rx="4" fill="white"/>
<path fill-rule="evenodd" clip-rule="evenodd" d="M12.254 20.6791C12.9748 20.5623 13.7143 20.5759 14.4385 20.6478C15.1099 20.7858 15.7872 20.9399 16.4033 21.2488C17.65 21.8405 18.7112 22.7996 19.4183 23.9804C20.0046 25.0716 20.408 26.2956 20.3476 27.5458C20.3646 30.1124 18.7299 32.5579 16.4144 33.649C14.9133 34.3592 13.1671 34.4565 11.563 34.0672C10.4781 33.7353 9.43138 33.1987 8.64083 32.3742C7.88773 31.6792 7.31928 30.7938 6.95847 29.8407C6.48789 28.6683 6.44534 27.3647 6.64532 26.1297C7.01123 24.2953 8.15068 22.6134 9.76325 21.6382C10.5138 21.1464 11.3767 20.8544 12.254 20.6791ZM11.2907 23.9728C10.7478 24.0278 10.1547 24.2174 9.85431 24.705C9.52244 25.172 9.48782 25.7562 9.45492 26.3111C9.45222 26.3567 9.44954 26.402 9.44669 26.4471C9.43993 26.5871 9.42736 26.7269 9.4148 26.8667C9.38945 27.1488 9.36409 27.431 9.38628 27.7151C9.40282 27.907 9.41449 28.0995 9.42616 28.292V28.292C9.45533 28.773 9.48452 29.2542 9.58966 29.7264C9.71985 30.3215 10.2585 30.7828 10.8525 30.8911C11.9595 31.0897 13.0872 31.0722 14.2081 31.0549C14.3108 31.0533 14.4134 31.0517 14.5159 31.0503C14.9746 31.0249 15.4332 30.9783 15.8868 30.9064C16.5659 30.8183 17.1658 30.2681 17.2773 29.5909C17.4721 28.7605 17.507 27.9039 17.4492 27.0566C17.3402 26.5131 16.9539 26.023 16.4289 25.8241C16.1923 25.7104 15.9299 25.7111 15.6726 25.7118C15.6272 25.7119 15.582 25.712 15.5371 25.7115C15.0308 25.7121 14.5245 25.7118 14.0183 25.7116H14.018C13.1322 25.7111 12.2466 25.7106 11.3614 25.7149C11.2596 25.7167 11.1646 25.6821 11.0704 25.6478C11.0355 25.6351 11.0007 25.6224 10.9657 25.6116C10.9631 25.422 10.9699 25.1384 11.2261 25.1333C11.893 25.1184 12.5606 25.1228 13.2281 25.1272C14.1073 25.133 14.9864 25.1388 15.8638 25.1003C15.7685 24.6602 15.4988 24.2005 15.0341 24.0786C14.6146 23.9669 14.1806 23.9102 13.7492 23.8704C13.6261 23.8689 13.5029 23.8665 13.3796 23.8642L13.3795 23.8642C12.6806 23.8509 11.9786 23.8375 11.2907 23.9728ZM16.0425 27.6703C15.8187 27.6102 15.5507 27.6982 15.4724 27.9276C15.4232 28.1917 15.502 28.4461 15.5802 28.6989C15.613 28.805 15.6458 28.9109 15.669 29.017C15.6945 29.0318 15.7328 29.0538 15.7711 29.0759C15.8094 29.0979 15.8477 29.1199 15.8732 29.1347C15.9608 29.0839 16.0502 29.0382 16.1429 28.9984C16.153 28.775 16.2071 28.5602 16.2612 28.3454C16.2852 28.2501 16.3092 28.1548 16.3293 28.0588C16.2876 27.9005 16.1829 27.7558 16.0425 27.6703Z" fill="#01ACD7"/>
<path fill-rule="evenodd" clip-rule="evenodd" d="M29.0903 22.7886C28.4342 22.5329 27.7058 22.5617 27.0182 22.6464C25.5307 22.8749 24.2253 24.0041 23.7845 25.4355C23.5845 26.0027 23.5888 26.6147 23.6416 27.2064C23.8194 28.7199 24.964 30.0489 26.4166 30.5119C27.4462 30.8217 28.6342 30.8319 29.5847 30.2775C29.7088 30.2091 29.8216 30.1248 29.9344 30.0403C30.0396 29.9616 30.1449 29.8827 30.2595 29.817L30.2613 29.8956C30.2754 30.5195 30.2913 31.2251 29.8153 31.6962C29.4962 32.0839 29.0137 32.2879 28.5261 32.3623C27.4717 32.5545 26.357 32.1964 25.5732 31.4786C25.399 31.6552 25.2165 31.8238 25.034 31.9924C24.7387 32.2652 24.4434 32.538 24.1836 32.844C25.0039 33.616 26.043 34.173 27.1697 34.3211C28.2708 34.4591 29.4553 34.3922 30.4365 33.8293C31.2688 33.3697 31.924 32.585 32.181 31.6699C32.3405 31.2139 32.3383 30.7269 32.3362 30.2503L32.3359 30.1699C32.335 27.6466 32.335 25.124 32.3359 22.6007C31.9371 22.5957 31.5384 22.596 31.1396 22.5962C30.8516 22.5964 30.5637 22.5965 30.2757 22.5947C30.2759 22.6641 30.2763 22.7334 30.2767 22.8027C30.2779 23.0279 30.2792 23.2532 30.274 23.4785C29.9191 23.1898 29.5268 22.935 29.0903 22.7886ZM26.477 24.9878C26.8182 24.6864 27.2709 24.5713 27.7126 24.5061C28.5916 24.3732 29.5804 24.7736 30.0306 25.5566C30.2121 25.8738 30.2046 26.2324 30.1971 26.5876V26.5876V26.5876V26.5876V26.5876C30.1945 26.712 30.1919 26.8359 30.1974 26.9575C30.2714 27.7041 29.6868 28.3627 29.0171 28.6166C28.2078 28.9197 27.2097 28.94 26.5033 28.3805C25.4447 27.5907 25.4235 25.7885 26.477 24.9878ZM47.1699 22.5964C46.29 22.5905 45.3727 22.8521 44.7387 23.4835C44.7331 23.4028 44.7278 23.3222 44.7225 23.2417L44.7225 23.2415L44.7225 23.2413L44.7225 23.2412L44.7225 23.241C44.7134 23.1023 44.7043 22.9639 44.6936 22.8258C44.0009 22.8174 43.3082 22.8148 42.6155 22.8258C42.6165 24.915 42.6164 27.0041 42.6162 29.0932V29.1122C42.6161 30.6727 42.616 32.2333 42.6164 33.7938C43.1031 33.825 43.591 33.8222 44.0788 33.8195H44.0788C44.3057 33.8183 44.5325 33.817 44.7591 33.8191C44.775 32.8512 44.7714 31.8828 44.7679 30.9142C44.7667 30.5835 44.7655 30.2527 44.7651 29.9219C46.2934 31.1299 48.7263 30.997 50.1006 29.6113C51.5966 28.1189 51.6826 25.4592 50.2419 23.9017C49.4837 23.0349 48.3195 22.5558 47.1699 22.5964ZM44.8655 25.7386C45.0893 25.069 45.7735 24.6695 46.4381 24.5383C47.1231 24.4003 47.889 24.5721 48.4183 25.036C49.3152 25.8469 49.322 27.4053 48.4761 28.2543C47.6277 29.0712 46.1266 29.056 45.2833 28.2391C44.9242 27.9234 44.7361 27.429 44.7676 26.9567C44.7747 26.8322 44.7713 26.7059 44.768 26.5795V26.5794V26.5794V26.5793V26.5793C44.7604 26.2931 44.7528 26.0063 44.8655 25.7386ZM36.4018 22.7006C37.611 22.4585 38.9342 22.6041 39.9869 23.2736C40.7877 23.7544 41.3969 24.534 41.6693 25.4237C42.0428 26.5927 41.8752 27.9301 41.1757 28.9476C40.4805 29.9727 39.2934 30.6008 38.068 30.7185C37.3132 30.7693 36.5328 30.7439 35.8189 30.4704C34.636 30.0751 33.6438 29.1042 33.2949 27.9047C32.9205 26.7806 33.0941 25.494 33.7357 24.4985C34.3297 23.5674 35.3253 22.9316 36.4018 22.7006ZM36.9081 24.5493C36.6069 24.6348 36.3252 24.7838 36.0784 24.9742C35.224 25.6438 35.0156 26.9677 35.624 27.8641C36.3192 29.0043 38.1131 29.2295 39.0542 28.2747C39.5146 27.854 39.7333 27.2259 39.672 26.6105C39.7239 25.2459 38.2024 24.1463 36.9081 24.5493ZM56.6616 22.6472C55.4234 22.4855 54.0823 22.6574 53.0552 23.4099C52.462 23.8789 51.9549 24.5239 51.8545 25.2908C52.1501 25.3412 52.4434 25.4048 52.7367 25.4684C53.1187 25.5513 53.5008 25.6342 53.8883 25.6878C54.0559 25.0182 54.6397 24.4858 55.3247 24.3757C55.768 24.2996 56.2293 24.3224 56.6607 24.4528C57.0377 24.5747 57.3245 24.9852 57.1594 25.3763C56.8519 25.6552 56.4335 25.7395 56.035 25.8199C55.9836 25.8302 55.9325 25.8405 55.8821 25.8512L55.6746 25.8805C54.663 26.0226 53.6114 26.1704 52.7505 26.7518C51.686 27.4925 51.6817 29.2354 52.6663 30.0447C53.4789 30.7396 54.6235 30.8192 55.643 30.6846C56.3484 30.5534 57.059 30.2495 57.5091 29.6714C57.5117 29.814 57.5117 29.9566 57.5117 30.0994C57.5117 30.2421 57.5117 30.385 57.5142 30.528C57.6696 30.5278 57.825 30.5273 57.9804 30.5268C58.4729 30.5252 58.966 30.5237 59.4595 30.5314C59.4615 29.5751 59.4612 28.6191 59.4609 27.6632C59.4607 26.9463 59.4605 26.2294 59.4612 25.5126C59.4689 24.931 59.2553 24.3647 58.9336 23.8856C58.4111 23.156 57.5244 22.7877 56.6616 22.6472ZM53.9827 28.4406C53.8704 28.1756 54.0874 27.9141 54.3044 27.7837C54.742 27.5438 55.2346 27.4543 55.7263 27.3649C56.3188 27.2573 56.9099 27.1498 57.4019 26.7798C57.3972 26.896 57.401 27.0177 57.4047 27.1411C57.4175 27.5576 57.4309 27.9934 57.1236 28.3043C56.5297 28.8934 55.6251 29.0018 54.826 28.951C54.4942 28.9315 54.0576 28.8173 53.9827 28.4406ZM60.3161 22.8199C60.0873 22.8203 59.8585 22.8208 59.6297 22.8208C60.2334 24.0754 60.8504 25.3238 61.4675 26.5723C62.0465 27.7437 62.6255 28.9152 63.1936 30.0921C62.9143 30.7027 62.6108 31.3022 62.3072 31.9017C61.9863 32.5353 61.6655 33.1689 61.3734 33.8158C61.6192 33.8147 61.8652 33.8166 62.1112 33.8185C62.6582 33.8227 63.2054 33.8269 63.7518 33.7988C65.5448 30.1437 67.3361 26.4886 69.1256 22.8318C68.3215 22.8114 67.5182 22.8148 66.7149 22.8284C65.9439 24.512 65.1636 26.1923 64.379 27.8692C64.1476 27.3723 63.9138 26.8764 63.68 26.3806C63.2981 25.5707 62.9162 24.7609 62.5451 23.9466C62.4857 23.814 62.4202 23.684 62.3547 23.5541C62.2346 23.3157 62.1146 23.0775 62.032 22.8233C61.46 22.8178 60.8881 22.8189 60.3161 22.8199Z" fill="#010101"/>
</svg>
