<svg width="76" height="54" viewBox="0 0 76 54" fill="none" xmlns="http://www.w3.org/2000/svg">
<rect width="76" height="54" rx="4" fill="#003D79"/>
<path fill-rule="evenodd" clip-rule="evenodd" d="M5.49722 28.5995C5.49722 27.6311 5.48008 26.8184 5.42865 26.0938H7.21288L7.29654 27.3387H7.34659C7.75099 26.6808 8.49054 25.9028 9.87002 25.9028C10.9468 25.9028 11.7878 26.5265 12.1404 27.4596H12.1751C12.4615 26.993 12.7968 26.6476 13.1834 26.4047C13.638 26.0767 14.1597 25.9028 14.8325 25.9028C16.1947 25.9028 17.5732 26.8533 17.5732 29.55V34.5099H15.5549V29.8616C15.5549 28.4618 15.0847 27.6311 14.0928 27.6311C13.3852 27.6311 12.8632 28.1506 12.646 28.7558C12.5949 28.9626 12.5445 29.222 12.5445 29.4623V34.5099H10.5256V29.6361C10.5256 28.4618 10.0721 27.6311 9.11316 27.6311C8.33934 27.6311 7.81854 28.2543 7.63305 28.8407C7.54836 29.0494 7.51442 29.2907 7.51442 29.5322V34.5099H5.49722V28.5995Z" fill="white"/>
<path fill-rule="evenodd" clip-rule="evenodd" d="M25.4366 32.4885C25.4366 33.2485 25.4702 33.9904 25.5543 34.5104H23.6866L23.5526 33.5774H23.5015C22.9971 34.2347 22.1393 34.7006 21.0797 34.7006C19.4309 34.7006 18.5062 33.4745 18.5062 32.1949C18.5062 30.0683 20.339 28.9977 23.3669 29.0148V28.876C23.3669 28.3228 23.148 27.4074 21.7017 27.4074C20.8939 27.4074 20.0525 27.6668 19.4978 28.0291L19.0935 26.6477C19.7002 26.2667 20.7609 25.9033 22.055 25.9033C24.6801 25.9033 25.4366 27.6154 25.4366 29.4465V32.4885ZM23.4173 30.3975C21.9542 30.3626 20.5584 30.691 20.5584 31.9701C20.5584 32.7988 21.0797 33.1798 21.7359 33.1798C22.5591 33.1798 23.1657 32.6266 23.3501 32.0219C23.4002 31.8664 23.4173 31.6929 23.4173 31.5551V30.3975Z" fill="white"/>
<path fill-rule="evenodd" clip-rule="evenodd" d="M26.8669 28.5995C26.8669 27.6311 26.8484 26.8184 26.7994 26.0938H28.6145L28.7159 27.3553H28.7657C29.1193 26.6993 30.0107 25.9028 31.3729 25.9028C32.8032 25.9028 34.2833 26.8533 34.2833 29.5155V34.5099H32.2146V29.758C32.2146 28.5474 31.7773 27.6311 30.6502 27.6311C29.8259 27.6311 29.2542 28.2362 29.035 28.8759C28.9688 29.0665 28.9513 29.3263 28.9513 29.5665V34.5099H26.8669V28.5995Z" fill="white"/>
<path fill-rule="evenodd" clip-rule="evenodd" d="M43.2532 22.7122V32.1418C43.2532 33.0058 43.2863 33.9407 43.3201 34.5103H41.4697L41.3869 33.1798H41.3526C40.8645 34.1135 39.8706 34.7006 38.6776 34.7006C36.7273 34.7006 35.1793 32.9899 35.1793 30.3975C35.1621 27.5801 36.8778 25.9033 38.8456 25.9033C39.9722 25.9033 40.7804 26.3878 41.1498 27.0105H41.1839V22.7122H43.2532ZM41.1839 29.6012C41.1839 29.4301 41.1666 29.2218 41.1342 29.0495C40.9489 28.2199 40.2925 27.5454 39.3505 27.5454C38.0217 27.5454 37.2815 28.7559 37.2815 30.3286C37.2815 31.8663 38.0217 32.9899 39.3337 32.9899C40.1744 32.9899 40.9149 32.4025 41.1165 31.4867C41.1666 31.2958 41.1839 31.0887 41.1839 30.8632V29.6012Z" fill="white"/>
<path fill-rule="evenodd" clip-rule="evenodd" d="M44.715 34.5098H46.8029V26.0942H44.715V34.5098Z" fill="white"/>
<path fill-rule="evenodd" clip-rule="evenodd" d="M48.265 28.8069C48.265 27.6667 48.2475 26.8533 48.1973 26.0936H49.9974L50.0633 27.7004H50.133C50.5361 26.5079 51.495 26.0936 52.3693 26.0936C52.5708 26.0936 52.6884 26.0582 52.857 26.0936V27.9607C52.6884 27.9262 52.5037 27.8917 52.2514 27.8917C51.2592 27.8917 50.5858 28.5478 50.401 29.4977C50.3682 29.6879 50.3343 29.9136 50.3343 30.1566V34.5103H48.265V28.8069Z" fill="white"/>
<path fill-rule="evenodd" clip-rule="evenodd" d="M53.8159 34.5098H55.9006V26.0942H53.8159V34.5098Z" fill="white"/>
<path fill-rule="evenodd" clip-rule="evenodd" d="M53.3226 15.9188C52.0703 16.6639 49.1166 18.4045 48.014 19.0527C47.342 19.4045 45.7856 19.5581 44.9053 18.3385C44.8895 18.3165 43.7344 16.8335 43.6873 16.7777C43.6542 16.7382 42.9075 15.6002 41.2436 15.5646C40.9978 15.5586 39.7755 15.5519 38.5828 16.2484C36.9976 17.1789 33.3109 19.3446 33.3109 19.3446C33.3099 19.3446 33.3099 19.3465 33.308 19.3465C31.7926 20.2374 30.6118 20.9311 30.6118 20.9311L32.0068 22.6916C32.6595 23.5242 34.1312 24.1683 35.4075 23.4155C35.4075 23.4155 40.1233 20.6096 40.1406 20.6015C42.1801 19.4522 43.7538 19.4522 44.7983 19.8799C45.7359 20.2869 46.5515 21.3011 46.5515 21.3011C46.5515 21.3011 47.6175 22.6585 47.8055 22.8959C48.412 23.663 49.4159 23.3616 49.4159 23.3616C49.4159 23.3616 49.7879 23.3183 50.3487 22.9762C50.3487 22.9762 54.9166 20.2549 54.9195 20.254C56.3699 19.3796 57.7002 19.2163 58.3801 19.2806C60.5096 19.4795 61.1711 21.008 62.0944 22.0744C62.6382 22.7016 63.1288 23.0578 63.8792 23.0398C64.3722 23.0291 64.9292 22.7219 65.0113 22.6664L70.4812 19.423C70.4812 19.423 69.92 18.5544 68.7706 17.2031C67.7418 15.9974 66.6491 16.5429 65.7779 16.9862C65.4119 17.1722 64.0858 18.0787 62.7719 18.711C61.8358 19.1614 60.4911 19.0259 59.7541 18.0903C59.71 18.0334 58.5178 16.5503 58.3924 16.3678C57.9112 15.7485 56.9723 15.1938 55.7691 15.1938C55.0374 15.1938 54.2072 15.3989 53.3226 15.9188Z" fill="url(#paint0_linear_41_181)"/>
<defs>
<linearGradient id="paint0_linear_41_181" x1="30.6118" y1="23.7489" x2="70.4812" y2="23.7489" gradientUnits="userSpaceOnUse">
<stop stop-color="#FFCA06"/>
<stop offset="0.330844" stop-color="#FBAA18"/>
<stop offset="0.694742" stop-color="#FFC907"/>
<stop offset="1" stop-color="#FAA619"/>
</linearGradient>
</defs>
</svg>
