<svg width="409" height="289" viewBox="0 0 409 289" fill="none" xmlns="http://www.w3.org/2000/svg">
<path fill-rule="evenodd" clip-rule="evenodd" d="M26.1946 0C23.1601 0 20.4548 2.10328 19.4112 5.26622L0.883057 61.549C0.298037 63.3289 -4.27624e-05 65.1905 4.60134e-09 67.0641V89.4535C4.60134e-09 102.113 9.23997 112.389 20.6394 112.389C32.0389 112.389 41.2869 102.113 41.2869 89.4535C41.2869 102.121 50.5268 112.389 61.9263 112.389C73.3257 112.389 82.5737 102.113 82.5737 89.4535C82.5737 102.121 91.8137 112.389 103.213 112.389C114.613 112.389 123.845 102.129 123.861 89.4696C123.861 102.129 133.101 112.389 144.5 112.389C155.899 112.389 165.139 102.113 165.139 89.4535C165.139 102.121 174.387 112.389 185.787 112.389C197.186 112.389 206.418 102.129 206.426 89.4696C206.434 102.129 215.674 112.389 227.074 112.389C238.473 112.389 247.713 102.113 247.713 89.4535C247.713 102.121 256.953 112.389 268.361 112.389C279.76 112.389 289 102.113 289 89.4535V67.0641C289 65.1905 288.702 63.3289 288.117 61.549L269.589 5.27425C268.545 2.10328 265.84 0 262.805 0H26.1946Z" fill="#96E6B3"/>
<path fill-rule="evenodd" clip-rule="evenodd" d="M32.1111 122.263V184.639H12.0417C10.9771 184.639 9.95616 185.062 9.20341 185.815C8.45066 186.567 8.02777 187.588 8.02777 188.653V196.681C8.02777 197.745 8.45066 198.766 9.20341 199.519C9.95616 200.272 10.9771 200.694 12.0417 200.694H276.958C278.023 200.694 279.044 200.272 279.797 199.519C280.549 198.766 280.972 197.745 280.972 196.681V188.653C280.972 187.588 280.549 186.567 279.797 185.815C279.044 185.062 278.023 184.639 276.958 184.639H256.889V122.263C253.528 120.924 250.424 119.015 247.713 116.62C245.632 118.455 243.319 120.01 240.833 121.244V184.639H48.1667V121.244C45.6811 120.01 43.3681 118.455 41.2869 116.62C38.5895 118.988 35.5069 120.914 32.1111 122.263ZM240.833 106.553C241.516 105.87 242.158 105.14 242.76 104.361H240.833V106.553ZM252.666 104.361C253.88 105.934 255.3 107.335 256.889 108.528V104.361H252.666ZM32.1111 108.528C33.7077 107.344 35.1293 105.942 36.3337 104.361H32.1111V108.528ZM46.24 104.361H48.1667V106.553C47.4771 105.865 46.8335 105.133 46.24 104.361ZM20.0694 216.75C19.0049 216.75 17.9839 217.173 17.2312 217.926C16.4784 218.678 16.0555 219.699 16.0555 220.764V280.972C16.0555 283.101 16.9013 285.143 18.4068 286.649C19.9123 288.154 21.9542 289 24.0833 289H264.917C267.046 289 269.088 288.154 270.593 286.649C272.099 285.143 272.944 283.101 272.944 280.972V220.764C272.944 219.699 272.522 218.678 271.769 217.926C271.016 217.173 269.995 216.75 268.931 216.75H20.0694Z" fill="#96E6B3"/>
<path d="M92.3195 160.556H68.2361C66.0193 160.556 64.2222 162.353 64.2222 164.569V180.625C64.2222 182.842 66.0193 184.639 68.2361 184.639H92.3195C94.5363 184.639 96.3333 182.842 96.3333 180.625V164.569C96.3333 162.353 94.5363 160.556 92.3195 160.556Z" fill="#96E6B3"/>
<path d="M108.375 168.583H84.2917C82.0749 168.583 80.2778 170.38 80.2778 172.597V180.625C80.2778 182.842 82.0749 184.639 84.2917 184.639H108.375C110.592 184.639 112.389 182.842 112.389 180.625V172.597C112.389 170.38 110.592 168.583 108.375 168.583Z" fill="#96E6B3"/>
<path d="M132.458 184.639C139.109 184.639 144.5 179.248 144.5 172.597C144.5 165.947 139.109 160.556 132.458 160.556C125.808 160.556 120.417 165.947 120.417 172.597C120.417 179.248 125.808 184.639 132.458 184.639Z" fill="#96E6B3"/>
<path d="M395.375 201.617H329.166L328.527 199.064C327.818 195.801 326.221 193.142 323.737 191.085C321.254 189.028 318.309 188 314.902 188H304.471C303.193 188 302.129 188.426 301.277 189.277C300.426 190.128 300 191.262 300 192.681C300 193.957 300.426 195.021 301.277 195.872C302.129 196.723 303.193 197.149 304.471 197.149H314.902C317.599 197.149 319.16 198.355 319.586 200.766L330.018 255.234C330.869 258.213 332.537 260.624 335.021 262.468C337.504 264.312 340.236 265.234 343.217 265.234H386.221C387.64 265.234 388.775 264.809 389.627 263.957C390.479 263.106 390.904 262.043 390.904 260.766C390.904 257.645 389.343 256.085 386.221 256.085H343.217C341.23 256.085 339.811 255.234 338.959 253.532L338.533 251.617H384.092C386.93 251.617 389.521 250.766 391.862 249.064C394.204 247.362 395.801 245.163 396.652 242.468L409 216.298V215.234C409 211.404 407.687 208.177 405.062 205.553C402.436 202.929 399.207 201.617 395.375 201.617ZM340.875 242.468H336.83L330.869 210.766H340.875V242.468ZM358.971 242.468H350.029V210.766H358.971V242.468ZM377.279 242.468H368.125V210.766H377.279V242.468ZM388.562 238.851V239.277C388.137 240.695 387.356 241.617 386.221 242.043V210.766H395.375C397.93 210.766 399.42 211.972 399.846 214.383L388.562 238.851ZM354.5 278.851C354.5 281.404 353.613 283.567 351.839 285.34C350.065 287.113 347.9 288 345.346 288C342.933 288 340.84 287.113 339.065 285.34C337.291 283.567 336.404 281.404 336.404 278.851C336.404 276.298 337.291 274.135 339.065 272.362C340.84 270.589 342.933 269.702 345.346 269.702C347.9 269.702 350.065 270.589 351.839 272.362C353.613 274.135 354.5 276.298 354.5 278.851ZM390.904 278.851C390.904 281.404 390.017 283.567 388.243 285.34C386.469 287.113 384.305 288 381.75 288C379.195 288 377.031 287.113 375.257 285.34C373.483 283.567 372.596 281.404 372.596 278.851C372.596 276.298 373.483 274.135 375.257 272.362C377.031 270.589 379.195 269.702 381.75 269.702C384.305 269.702 386.469 270.589 388.243 272.362C390.017 274.135 390.904 276.298 390.904 278.851Z" fill="#96E6B3"/>
</svg>
