<svg width="451" height="288" viewBox="0 0 451 288" fill="none" xmlns="http://www.w3.org/2000/svg">
<path d="M231 237.333H434V278H231V237.333ZM274.137 135.667H302.05V125.5H271.6V95H352.8V125.5H322.35V135.667H391.37C401.52 135.667 411.67 145.833 413.7 156L418.775 227.167H246.225L251.808 156C251.808 145.833 261.957 135.667 274.137 135.667ZM342.65 156V176.333H393.4V156H342.65ZM271.6 156V166.167H291.9V156H271.6ZM302.05 156V166.167H322.35V156H302.05ZM271.6 176.333V186.5H291.9V176.333H271.6ZM302.05 176.333V186.5H322.35V176.333H302.05ZM271.6 196.667V206.833H291.9V196.667H271.6ZM302.05 196.667V206.833H322.35V196.667H302.05ZM281.75 105.167V115.333H342.65V105.167H281.75Z" fill="#96E6B3"/>
<path d="M354 40.5L378.462 82.8686L414.604 62.0019C412.544 60.1529 410.789 57.9875 409.406 55.5875L388.393 67.7193C387.312 65.8465 385.537 64.4765 383.459 63.9106C381.381 63.3447 379.17 63.6293 377.312 64.7018L369.158 50.5789C373.046 48.3346 374.348 43.3927 372.086 39.4736L407.107 19.2539C408.188 21.1267 409.963 22.4968 412.041 23.0626C414.119 23.6285 416.331 23.3439 418.188 22.2714L418.311 22.4832C420.657 21.1285 423.248 20.1975 426.008 19.6398L417.039 4.1046L354 40.5ZM391.635 32.8945C385.742 36.4377 383.778 43.5503 387.244 49.5525C390.709 55.5547 397.79 57.3043 403.865 54.0788C405.196 53.3104 406.399 52.2394 407.389 50.9617C406.092 46.5319 405.548 41.9501 407.356 36.1044C404.225 31.6512 397.142 29.5736 391.635 32.8945ZM432.026 24.9684L426.423 46.5632L418.902 44.4557L416.859 52.3203L432.157 56.5753L439.803 27.1159L432.026 24.9684Z" fill="#96E6B3"/>
<path d="M180.955 117.278C177.149 132.545 163.432 143.25 147.718 143.25C132.004 143.25 118.288 132.545 114.482 117.278L111.166 104.122C109.583 97.6764 103.026 93.7561 96.5444 95.377C90.0629 96.9979 86.1815 103.519 87.8019 110.003L91.0804 123.158C95.2255 139.744 106.229 153.164 120.586 160.703V275.938C120.586 282.61 125.975 288 132.645 288C139.315 288 144.704 282.61 144.704 275.938V227.688H150.733V275.938C150.733 282.61 156.122 288 162.792 288C169.461 288 174.85 282.61 174.85 275.938V160.703C189.208 153.164 200.211 139.744 204.356 123.158L207.635 110.003C209.255 103.557 205.336 96.9979 198.854 95.377C192.373 93.7561 185.854 97.6764 184.271 104.122L180.993 117.278H180.955ZM147.718 131.188C157.704 131.188 165.806 123.083 165.806 113.094C165.806 103.104 157.704 95 147.718 95C137.732 95 129.63 103.104 129.63 113.094C129.63 123.083 137.732 131.188 147.718 131.188ZM27.1319 131.188C37.118 131.188 45.2199 123.083 45.2199 113.094C45.2199 103.104 37.118 95 27.1319 95C17.1459 95 9.04398 103.104 9.04398 113.094C9.04398 123.083 17.1459 131.188 27.1319 131.188ZM24.1173 143.25C10.8151 143.25 0 154.069 0 167.375V275.938C0 282.61 5.3887 288 12.0586 288C18.7286 288 24.1173 282.61 24.1173 275.938V227.688H30.1466V275.938C30.1466 282.61 35.5353 288 42.2052 288C48.8751 288 54.2639 282.61 54.2639 275.938V190.256L59.1627 197.984C61.386 201.452 65.2297 203.6 69.3371 203.6H87.4251C94.095 203.6 99.4837 198.21 99.4837 191.538C99.4837 184.866 94.095 179.475 87.4251 179.475H75.9694L61.8759 157.273C56.3741 148.527 46.7649 143.25 36.4397 143.25H24.1173Z" fill="#96E6B3"/>
</svg>
