<svg width="169" height="115" viewBox="0 0 169 115" fill="none" xmlns="http://www.w3.org/2000/svg">
<path d="M155.112 43.4558C154.147 42.1615 152.91 41.0944 151.488 40.3297C150.066 39.565 148.493 39.1212 146.881 39.0296C143.901 38.9752 141.432 39.7175 136.411 41.2269L121.347 45.7553C116.367 47.2523 113.856 48.007 111.429 49.6416C110.133 50.6097 109.066 51.8505 108.302 53.2763C107.538 54.7021 107.097 56.2782 107.009 57.8933C106.969 60.8465 107.717 63.3364 109.214 68.3163L113.749 83.4011C115.252 88.4017 115.995 90.8709 117.635 93.3189C118.601 94.6132 119.838 95.6802 121.26 96.445C122.682 97.2097 124.254 97.6534 125.866 97.745C128.82 97.7849 131.309 97.0364 136.289 95.5394L151.395 90.9986C156.396 89.4954 158.885 88.7469 161.313 87.1123C162.613 86.1456 163.685 84.9047 164.452 83.4777C165.22 82.0506 165.664 80.4722 165.753 78.8543C165.793 75.9012 165.045 73.4112 163.548 68.4314L159.026 53.388C157.522 48.3874 156.774 45.8975 155.112 43.4558ZM145.198 56.9112L143.848 59.421C143.713 59.6525 143.496 59.8255 143.241 59.9065C142.985 59.9875 142.708 59.9708 142.464 59.8597C140.121 58.8432 137.494 58.6873 135.047 59.4197C133.034 60.0247 131.221 61.2937 131.776 63.1404C132.338 65.0079 134.683 64.9817 137.453 65.1669C142.247 65.3095 146.407 66.0502 147.691 70.3245C149.089 74.9724 146.439 79.2531 140.652 81.3773L140.861 84.0294C140.882 84.2726 140.819 84.5156 140.682 84.7175C140.545 84.9194 140.342 85.0679 140.108 85.138L136.394 86.2545L136.201 86.2899C135.917 86.3102 135.637 86.218 135.421 86.0333C135.204 85.8486 135.069 85.5862 135.045 85.3027L134.834 82.4929C132.429 82.6045 130.035 82.1016 127.878 81.0316L127.872 81.0109C127.751 80.9462 127.645 80.8584 127.558 80.7525C127.471 80.6465 127.407 80.5245 127.367 80.3934C127.328 80.2623 127.315 80.1248 127.328 79.9886C127.342 79.8524 127.383 79.7203 127.448 79.5999L128.918 76.9635C129.053 76.7303 129.272 76.5574 129.53 76.4798C129.789 76.4022 130.067 76.4257 130.308 76.5455C132.733 77.7624 135.564 77.9974 138.166 77.17C140.863 76.3591 142.325 74.6753 141.782 72.8701C141.24 71.0649 139.27 71.1365 135.439 70.8855C131.394 70.676 127.374 69.871 126.077 65.5551C124.567 60.5337 128.002 56.8316 132.872 55.1188L132.623 52.4107C132.603 52.1694 132.668 51.9287 132.807 51.7301C132.945 51.5315 133.149 51.3874 133.382 51.3228L137.076 50.2126L137.289 50.1709C137.866 50.1333 138.375 50.546 138.413 51.1229L138.707 54.134C140.761 54.1951 142.818 54.6401 144.72 55.4713L144.774 55.5003C145.293 55.7968 145.48 56.4192 145.198 56.9112Z" fill="#EFE72C"/>
<path d="M73.0959 4.49359C72.2288 3.85716 71.2327 3.41851 70.1778 3.20848C69.1229 2.99846 68.0348 3.02216 66.99 3.27794C65.081 3.82404 63.6526 4.77805 60.748 6.71813L52.0342 12.5384C49.1535 14.4624 47.7012 15.4324 46.4736 16.9467C45.8368 17.8159 45.3986 18.8144 45.1899 19.8715C44.9812 20.9286 45.0072 22.0187 45.2659 23.0646C45.816 24.9537 46.778 26.394 48.7021 29.2746L54.5303 38.0005C56.4624 40.8931 57.4164 42.3214 58.9387 43.5611C59.8058 44.1975 60.8019 44.6361 61.8568 44.8462C62.9117 45.0562 63.9999 45.0325 65.0446 44.7767C66.9336 44.2266 68.374 43.2646 71.2546 41.3406L79.9925 35.5043C82.8851 33.5722 84.3254 32.6102 85.553 31.0959C86.193 30.2267 86.6341 29.2274 86.8448 28.1687C87.0556 27.1101 87.031 26.018 86.7727 24.97C86.2226 23.081 85.2606 21.6406 83.3365 18.76L77.5243 10.0582C75.5922 7.16554 74.6302 5.72523 73.0959 4.49359ZM69.4021 14.9972L69.0315 16.859C68.9903 17.0328 68.8861 17.1852 68.739 17.2866C68.5919 17.3881 68.4124 17.4314 68.2353 17.4081C66.5445 17.2172 64.8406 17.6299 63.4245 18.5732C62.2602 19.3509 61.3525 20.5126 62.066 21.5808C62.7875 22.6611 64.2763 22.1874 66.0774 21.7655C69.1591 20.9221 71.953 20.5834 73.6045 23.0559C75.4003 25.7445 74.5464 28.9878 71.274 31.4687L71.9239 33.1174C71.9848 33.2682 71.9918 33.4353 71.9438 33.5907C71.8958 33.746 71.7957 33.8801 71.6605 33.9703L69.512 35.4053L69.396 35.4655C69.2191 35.5337 69.0226 35.5296 68.8487 35.4541C68.6749 35.3786 68.5377 35.2378 68.4669 35.062L67.7848 33.3132C66.2746 33.8529 64.6518 33.999 63.0694 33.7376L63.0614 33.7256C62.9719 33.708 62.8869 33.6728 62.811 33.6222C62.7351 33.5716 62.67 33.5065 62.6194 33.4307C62.5687 33.3549 62.5336 33.2698 62.5159 33.1804C62.4982 33.0909 62.4983 32.9989 62.5163 32.9095L62.9389 30.9435C62.9797 30.7686 63.0855 30.6158 63.2348 30.516C63.3842 30.4163 63.5659 30.3771 63.7431 30.4064C65.5247 30.7091 67.3739 30.3071 68.8702 29.273C70.4305 28.2308 71.0338 26.8732 70.3363 25.829C69.6389 24.7848 68.3982 25.2142 65.9088 25.8008C63.2913 26.4556 60.5733 26.7262 58.9058 24.2297C56.9657 21.3251 58.4323 18.2974 61.2007 16.2573L60.5147 14.5806C60.455 14.4307 60.4494 14.2648 60.499 14.1112C60.5485 13.9577 60.6501 13.8263 60.7862 13.7397L62.9226 12.3127L63.0507 12.2445C63.4108 12.1081 63.8153 12.2719 63.9517 12.632L64.726 14.4929C66.0467 14.1314 67.4437 14.0141 68.817 14.173L68.857 14.181C69.2454 14.2687 69.4859 14.6288 69.4021 14.9972Z" fill="#EFE72C"/>
<path d="M31.0959 70.7643C30.2288 70.1279 29.2327 69.6892 28.1778 69.4792C27.1229 69.2691 26.0348 69.2929 24.99 69.5486C23.081 70.0947 21.6526 71.0487 18.748 72.9888L10.0342 78.8091C7.15353 80.7331 5.70122 81.7031 4.47357 83.2174C3.83677 84.0866 3.39857 85.0851 3.18991 86.1422C2.98124 87.1993 3.00719 88.2893 3.26594 89.3353C3.81602 91.2244 4.77804 92.6647 6.70209 95.5453L12.5303 104.271C14.4624 107.164 15.4164 108.592 16.9387 109.832C17.8058 110.468 18.8019 110.907 19.8568 111.117C20.9117 111.327 21.9999 111.303 23.0446 111.047C24.9336 110.497 26.374 109.535 29.2546 107.611L37.9925 101.775C40.8851 99.8429 42.3254 98.8809 43.553 97.3666C44.193 96.4974 44.6341 95.4981 44.8448 94.4394C45.0556 93.3808 45.031 92.2887 44.7727 91.2407C44.2226 89.3516 43.2606 87.9113 41.3365 85.0307L35.5243 76.3289C33.5922 73.4362 32.6302 71.9959 31.0959 70.7643ZM27.4021 81.2679L27.0315 83.1297C26.9903 83.3035 26.8861 83.4559 26.739 83.5573C26.5919 83.6588 26.4124 83.7021 26.2353 83.6788C24.5445 83.4879 22.8406 83.9006 21.4245 84.8439C20.2602 85.6216 19.3525 86.7833 20.066 87.8515C20.7875 88.9317 22.2763 88.4581 24.0774 88.0362C27.1591 87.1928 29.953 86.8541 31.6045 89.3266C33.4003 92.0152 32.5464 95.2585 29.274 97.7394L29.9239 99.3881C29.9848 99.5389 29.9918 99.706 29.9438 99.8614C29.8958 100.017 29.7957 100.151 29.6605 100.241L27.512 101.676L27.396 101.736C27.2191 101.804 27.0226 101.8 26.8487 101.725C26.6749 101.649 26.5377 101.508 26.4669 101.333L25.7848 99.5839C24.2746 100.124 22.6518 100.27 21.0694 100.008L21.0614 99.9963C20.9719 99.9787 20.8869 99.9435 20.811 99.8929C20.7351 99.8423 20.67 99.7772 20.6194 99.7014C20.5687 99.6256 20.5336 99.5405 20.5159 99.4511C20.4982 99.3616 20.4983 99.2695 20.5163 99.1801L20.9389 97.2142C20.9797 97.0393 21.0855 96.8865 21.2348 96.7867C21.3842 96.687 21.5659 96.6478 21.7431 96.6771C23.5247 96.9798 25.3739 96.5778 26.8702 95.5437C28.4305 94.5015 29.0338 93.1439 28.3363 92.0997C27.6389 91.0555 26.3982 91.4849 23.9088 92.0715C21.2913 92.7263 18.5733 92.9969 16.9058 90.5004C14.9657 87.5958 16.4323 84.5681 19.2007 82.528L18.5147 80.8513C18.455 80.7014 18.4494 80.5354 18.499 80.3819C18.5485 80.2284 18.6501 80.097 18.7862 80.0104L20.9226 78.5834L21.0507 78.5152C21.4108 78.3788 21.8153 78.5426 21.9517 78.9027L22.726 80.7635C24.0467 80.4021 25.4437 80.2848 26.817 80.4437L26.857 80.4517C27.2454 80.5394 27.4859 80.8995 27.4021 81.2679Z" fill="#EFE72C"/>
</svg>
