<svg width="194" height="122" viewBox="0 0 194 122" fill="none" xmlns="http://www.w3.org/2000/svg">
<path d="M76.7446 79.3396C77.2387 77.5704 77.3389 75.7143 77.0381 73.9022C76.7374 72.09 76.0431 70.3658 75.0041 68.851C72.987 66.1256 70.5996 64.4156 65.7528 60.9439L51.1973 50.5182C46.3896 47.0745 43.9617 45.3355 40.8071 44.2838C39.033 43.7897 37.1721 43.691 35.3557 43.9947C33.5393 44.2984 31.8117 44.9971 30.2948 46.0415C27.6053 48.0593 25.8835 50.4632 22.4398 55.2709L12.0022 69.8429C8.54132 74.6747 6.83133 77.062 5.76242 80.2406C5.26836 82.0099 5.16816 83.8659 5.46888 85.6781C5.76959 87.4902 6.46392 89.2144 7.50296 90.7293C9.52076 93.4188 11.9246 95.1406 16.7399 98.5897L31.3269 109.038C36.1587 112.499 38.5626 114.221 41.7246 115.278C43.4989 115.776 45.3608 115.878 47.1789 115.577C48.9971 115.277 50.727 114.581 52.2466 113.538C54.9361 111.521 56.658 109.117 60.107 104.301L70.5166 89.7685C73.9775 84.9368 75.6993 82.5329 76.7442 79.3371L76.7446 79.3396ZM57.7295 79.7701L54.5226 80.2936C54.2209 80.3291 53.9166 80.2526 53.6677 80.0784C53.4188 79.9043 53.2425 79.6448 53.1723 79.3492C52.452 76.5356 50.7682 74.0634 48.4138 72.3628C46.4639 70.9661 44.0618 70.2168 42.7825 72.0028C41.4925 73.8038 43.1428 75.8981 44.9017 78.5204C48.104 82.9478 50.3278 87.2043 47.372 91.331C44.1523 95.826 38.4579 96.4148 32.525 92.6748L30.2731 94.7103C30.0703 94.897 29.8094 95.0081 29.5343 95.0248C29.2592 95.0416 28.9867 94.963 28.7628 94.8023L25.1683 92.2276L24.9987 92.0834C24.7848 91.8414 24.6742 91.5254 24.6905 91.2029C24.7068 90.8804 24.8487 90.5771 25.0859 90.3579L27.4727 88.2166C25.6994 86.1254 24.4868 83.6177 23.9486 80.9293L23.9659 80.9052C23.9148 80.5952 23.9889 80.2777 24.1718 80.0223C24.3547 79.7669 24.6315 79.5946 24.9414 79.5432L28.3367 79.0362C28.6414 78.9981 28.9493 79.0762 29.199 79.255C29.4487 79.4339 29.6217 79.7003 29.6837 80.0011C30.2781 83.0479 32.0363 85.7433 34.5851 87.5152C37.192 89.3824 39.7217 89.5249 40.973 87.778C42.2243 86.0311 40.7875 84.315 38.3522 80.6872C35.7243 76.8965 33.659 72.7172 36.6482 68.5438C40.1199 63.697 45.8382 64.2149 50.7716 67.4164L53.0393 65.308C53.243 65.1211 53.5057 65.0111 53.7819 64.9972C54.0581 64.9832 54.3305 65.0661 54.5521 65.2315L58.115 67.7836L58.3008 67.953C58.4062 68.0678 58.488 68.2022 58.5413 68.3486C58.5947 68.495 58.6186 68.6506 58.6117 68.8062C58.6048 68.9619 58.5672 69.1147 58.5011 69.2558C58.435 69.397 58.3417 69.5236 58.2265 69.6286L55.7184 71.9902C57.1058 73.8922 58.1151 76.0429 58.6915 78.3255L58.7047 78.4055C58.7941 79.0746 58.3623 79.6774 57.7291 79.7675L57.7295 79.7701Z" fill="#EFE72C"/>
<path d="M178.279 94.5629C178.767 93.3901 178.991 92.1246 178.936 90.8557C178.882 89.5868 178.55 88.3453 177.964 87.2186C176.808 85.179 175.313 83.8054 172.277 81.0166L163.161 72.6415C160.15 69.8752 158.629 68.4781 156.553 67.492C155.376 67.0042 154.108 66.7806 152.835 66.8368C151.563 66.893 150.319 67.2278 149.191 67.8174C147.176 68.9769 145.792 70.4824 143.026 73.4934L134.642 82.6197C131.861 85.6458 130.488 87.141 129.488 89.2329C129 90.4058 128.776 91.6712 128.831 92.9401C128.885 94.209 129.217 95.4506 129.803 96.5773C130.963 98.5922 132.468 99.9754 135.484 102.746L144.62 111.139C147.646 113.919 149.151 115.303 151.233 116.293C152.409 116.784 153.678 117.01 154.951 116.956C156.224 116.902 157.47 116.569 158.6 115.981C160.615 114.822 161.998 113.316 164.769 110.3L173.131 101.199C175.911 98.1724 177.294 96.6669 178.279 94.5611L178.279 94.5629ZM165.193 93.2649L162.948 93.3554C162.738 93.3545 162.536 93.2765 162.379 93.1361C162.223 92.9957 162.124 92.8029 162.101 92.5941C161.842 90.6027 160.893 88.7649 159.42 87.4004C158.199 86.2785 156.613 85.5629 155.585 86.6815C154.549 87.8095 155.506 89.3851 156.494 91.3322C158.321 94.6391 159.49 97.7468 157.116 100.331C154.529 103.146 150.572 103.073 146.813 100.009L145.097 101.218C144.942 101.329 144.754 101.383 144.564 101.372C144.374 101.36 144.193 101.283 144.053 101.154L141.802 99.086L141.697 98.9728C141.571 98.7888 141.521 98.5626 141.56 98.3426C141.598 98.1227 141.721 97.9264 141.902 97.7959L143.719 96.5263C142.678 94.9424 142.056 93.1198 141.911 91.2296L141.925 91.2145C141.916 90.9975 141.994 90.7857 142.141 90.6258C142.288 90.4658 142.492 90.3708 142.709 90.3615L145.082 90.2981C145.294 90.2974 145.499 90.3768 145.655 90.5205C145.812 90.6642 145.908 90.8615 145.925 91.0731C146.078 93.214 147.059 95.2112 148.66 96.641C150.292 98.1409 152.016 98.4506 153.022 97.3566C154.027 96.2625 153.185 94.9644 151.817 92.2705C150.331 89.4486 149.264 86.4072 151.665 83.7935C154.454 80.758 158.335 81.5926 161.453 84.2033L163.186 82.9463C163.341 82.8351 163.531 82.7816 163.722 82.7952C163.912 82.8087 164.092 82.8885 164.231 83.0206L166.462 85.0707L166.575 85.2025C166.638 85.2901 166.683 85.3892 166.707 85.4942C166.732 85.5991 166.735 85.7079 166.717 85.8141C166.699 85.9204 166.661 86.0221 166.604 86.1134C166.546 86.2048 166.472 86.2839 166.384 86.3463L164.465 87.7569C165.257 89.1785 165.77 90.7391 165.974 92.354L165.977 92.41C165.982 92.8767 165.635 93.2543 165.193 93.2631L165.193 93.2649Z" fill="#EFE72C"/>
<path d="M190.405 21.5665C190.738 20.7651 190.891 19.9005 190.854 19.0334C190.817 18.1664 190.59 17.3181 190.189 16.5482C189.4 15.1546 188.378 14.216 186.304 12.3105L180.075 6.58789C178.018 4.6977 176.979 3.74315 175.559 3.06933C174.756 2.73604 173.889 2.58321 173.02 2.62163C172.15 2.66005 171.3 2.88878 170.529 3.29167C169.152 4.08392 168.207 5.11261 166.317 7.17001L160.588 13.4059C158.688 15.4736 157.75 16.4952 157.066 17.9246C156.733 18.726 156.58 19.5907 156.617 20.4577C156.655 21.3247 156.882 22.173 157.282 22.9429C158.074 24.3197 159.103 25.2648 161.164 27.1579L167.406 32.8929C169.474 34.7926 170.502 35.7377 171.925 36.4145C172.728 36.7495 173.595 36.9041 174.465 36.8673C175.335 36.8305 176.186 36.6031 176.958 36.2012C178.335 35.409 179.28 34.3803 181.174 32.3197L186.887 26.1005C188.787 24.0328 189.732 23.0041 190.405 21.5653L190.405 21.5665ZM181.463 20.6796L179.929 20.7415C179.786 20.7408 179.648 20.6875 179.541 20.5916C179.434 20.4957 179.366 20.3639 179.35 20.2213C179.174 18.8606 178.526 17.6048 177.519 16.6725C176.684 15.9059 175.601 15.417 174.899 16.1812C174.191 16.952 174.845 18.0286 175.519 19.359C176.767 21.6186 177.567 23.742 175.944 25.508C174.177 27.4316 171.473 27.3816 168.905 25.288L167.732 26.1136C167.626 26.1896 167.498 26.2267 167.368 26.2188C167.238 26.2109 167.114 26.1585 167.019 26.0703L165.48 24.6571L165.409 24.5797C165.323 24.454 165.289 24.2995 165.315 24.1492C165.341 23.9989 165.425 23.8648 165.549 23.7756L166.791 22.908C166.079 21.8258 165.654 20.5805 165.555 19.2889L165.565 19.2786C165.559 19.1303 165.612 18.9856 165.712 18.8763C165.812 18.767 165.952 18.7021 166.1 18.6957L167.722 18.6524C167.867 18.652 168.007 18.7062 168.113 18.8044C168.22 18.9025 168.286 19.0374 168.298 19.182C168.402 20.6448 169.072 22.0095 170.166 22.9864C171.282 24.0113 172.46 24.2229 173.147 23.4754C173.834 22.7278 173.258 21.8408 172.324 20.0001C171.308 18.072 170.579 15.9938 172.22 14.2079C174.126 12.1338 176.778 12.7041 178.908 14.4879L180.092 13.629C180.198 13.553 180.328 13.5165 180.458 13.5258C180.588 13.535 180.711 13.5895 180.806 13.6798L182.33 15.0806L182.408 15.1707C182.451 15.2305 182.481 15.2983 182.498 15.37C182.515 15.4417 182.517 15.516 182.505 15.5886C182.493 15.6612 182.466 15.7307 182.427 15.7931C182.388 15.8555 182.337 15.9096 182.277 15.9522L180.966 16.916C181.507 17.8874 181.857 18.9538 181.997 20.0572L181.999 20.0955C182.002 20.4144 181.765 20.6724 181.463 20.6784L181.463 20.6796Z" fill="#EFE72C"/>
</svg>
