<svg width="35" height="35" viewBox="0 0 35 35" fill="none" xmlns="http://www.w3.org/2000/svg">
<rect width="35" height="35" fill="#EAEAEA"/>
<path fill-rule="evenodd" clip-rule="evenodd" d="M25.528 12.9538C25.6672 13.0094 25.7866 13.1054 25.8707 13.2294C25.9549 13.3535 25.9999 13.4999 26 13.6498V22.3118C25.9999 22.4617 25.9549 22.6081 25.8707 22.7322C25.7866 22.8563 25.6672 22.9523 25.528 23.0078L18.278 25.9078C18.0992 25.9793 17.8998 25.9793 17.721 25.9078L10.471 23.0078C10.332 22.9521 10.2128 22.856 10.1289 22.732C10.0449 22.6079 10 22.4616 10 22.3118V13.6498C10 13.5 10.0449 13.3537 10.1289 13.2297C10.2128 13.1056 10.332 13.0095 10.471 12.9538L17.443 10.1648L17.447 10.1638L17.721 10.0538C17.9001 9.98206 18.0999 9.98206 18.279 10.0538L18.553 10.1638L18.557 10.1648L25.528 12.9538V12.9538ZM24.154 13.4808L18 15.9428L11.846 13.4808L11 13.8198V14.2198L17.5 16.8198V24.7418L18 24.9418L18.5 24.7418V16.8208L25 14.2208V13.8208L24.154 13.4818V13.4808Z" fill="black"/>
</svg>
