<svg width="35" height="35" viewBox="0 0 35 35" fill="none" xmlns="http://www.w3.org/2000/svg">
<rect width="35" height="35" fill="#EAEAEA"/>
<path d="M14.123 15.25L14.914 10H10.8L9.081 14.5C9.028 14.66 9 14.826 9 15C9 16.104 10.15 17 11.571 17C12.881 17 13.964 16.236 14.123 15.25ZM18 17C19.42 17 20.571 16.104 20.571 15C20.571 14.959 20.568 14.918 20.566 14.879L20.057 10H15.943L15.433 14.875C15.4306 14.9166 15.4293 14.9583 15.429 15C15.429 16.104 16.58 17 18 17ZM23 18.046V22H13V18.052C12.562 18.21 12.08 18.3 11.571 18.3C11.376 18.3 11.187 18.277 11 18.251V24.6C11 25.37 11.629 26 12.398 26H23.6C24.37 26 25 25.369 25 24.6V18.252C24.811 18.281 24.6202 18.2974 24.429 18.301C23.9414 18.3005 23.4577 18.2142 23 18.046V18.046ZM26.92 14.5L25.199 10H21.086L21.876 15.242C22.03 16.232 23.113 17 24.429 17C25.849 17 27 16.104 27 15C27 14.826 26.972 14.66 26.92 14.5Z" fill="black"/>
</svg>
