<svg width="77" height="77" viewBox="0 0 77 77" fill="none" xmlns="http://www.w3.org/2000/svg">
<path fill-rule="evenodd" clip-rule="evenodd" d="M38.4999 73.1499C57.6363 73.1499 73.1499 57.6363 73.1499 38.4999C73.1499 19.3635 57.6363 3.84999 38.4999 3.84999C19.3635 3.84999 3.84999 19.3635 3.84999 38.4999C3.84999 57.6363 19.3635 73.1499 38.4999 73.1499ZM38.4999 76.9999C59.7634 76.9999 76.9999 59.7634 76.9999 38.4999C76.9999 17.2364 59.7634 0 38.4999 0C17.2364 0 0 17.2364 0 38.4999C0 59.7634 17.2364 76.9999 38.4999 76.9999Z" fill="black"/>
<path d="M15.3999 60.8877C15.3999 58.8992 16.886 57.2187 18.8649 56.9992C33.7162 55.3553 43.3508 55.5035 58.1695 57.0358C58.9095 57.1135 59.6108 57.4051 60.1878 57.8748C60.7649 58.3445 61.1926 58.9722 61.4188 59.681C61.645 60.3898 61.6599 61.1492 61.4616 61.8664C61.2634 62.5835 60.8606 63.2274 60.3024 63.7194C42.8138 78.9635 32.8192 78.7536 16.6319 63.7348C15.8427 63.0033 15.3999 61.9638 15.3999 60.8897V60.8877Z" fill="black"/>
<path fill-rule="evenodd" clip-rule="evenodd" d="M57.9714 58.9492C43.2702 57.4285 33.7742 57.286 19.0749 58.9126C18.5911 58.969 18.145 59.2019 17.8221 59.5666C17.4993 59.9314 17.3223 60.4025 17.3251 60.8896C17.3251 61.4401 17.5542 61.9618 17.9411 62.3237C25.9645 69.7657 32.0436 73.1287 37.9861 73.1499C43.9497 73.1711 50.3561 69.835 59.0378 62.2698C59.3137 62.0243 59.5122 61.704 59.6094 61.3478C59.7065 60.9916 59.6981 60.6148 59.5852 60.2632C59.4722 59.9117 59.2595 59.6006 58.9731 59.3676C58.6866 59.1347 58.3386 58.99 57.9714 58.9511V58.9492ZM18.6533 55.0857C33.6606 53.4245 43.4357 53.5746 58.3699 55.1204C59.4831 55.2366 60.5383 55.6748 61.4063 56.3815C62.2743 57.0882 62.9174 58.0326 63.2569 59.0991C63.5964 60.1657 63.6176 61.3081 63.3178 62.3864C63.0181 63.4648 62.4104 64.4324 61.5692 65.1708C52.7624 72.8477 45.4281 77.0288 37.9745 76.9999C30.4998 76.9729 23.4889 72.7206 15.325 65.1458C14.7405 64.6013 14.2745 63.9422 13.9562 63.2095C13.638 62.4769 13.4742 61.6865 13.4751 60.8877C13.4723 59.4524 13.9991 58.0666 14.9546 56.9957C15.9101 55.9248 17.2271 55.244 18.6533 55.0838V55.0857Z" fill="black"/>
<path d="M53.9 30.8C53.9 34.8843 52.2775 38.8014 49.3895 41.6894C46.5014 44.5775 42.5844 46.2 38.5001 46.2C34.4157 46.2 30.4987 44.5775 27.6106 41.6894C24.7226 38.8014 23.1001 34.8843 23.1001 30.8C23.1001 26.7157 24.7226 22.7986 27.6106 19.9106C30.4987 17.0225 34.4157 15.4 38.5001 15.4C42.5844 15.4 46.5014 17.0225 49.3895 19.9106C52.2775 22.7986 53.9 26.7157 53.9 30.8V30.8Z" fill="black"/>
<path fill-rule="evenodd" clip-rule="evenodd" d="M38.5001 42.35C41.5633 42.35 44.5011 41.1331 46.6671 38.9671C48.8332 36.801 50.05 33.8632 50.05 30.8C50.05 27.7368 48.8332 24.799 46.6671 22.6329C44.5011 20.4669 41.5633 19.25 38.5001 19.25C35.4368 19.25 32.499 20.4669 30.333 22.6329C28.167 24.799 26.9501 27.7368 26.9501 30.8C26.9501 33.8632 28.167 36.801 30.333 38.9671C32.499 41.1331 35.4368 42.35 38.5001 42.35V42.35ZM38.5001 46.2C42.5844 46.2 46.5014 44.5775 49.3895 41.6894C52.2775 38.8014 53.9 34.8843 53.9 30.8C53.9 26.7157 52.2775 22.7986 49.3895 19.9106C46.5014 17.0225 42.5844 15.4 38.5001 15.4C34.4157 15.4 30.4987 17.0225 27.6106 19.9106C24.7226 22.7986 23.1001 26.7157 23.1001 30.8C23.1001 34.8843 24.7226 38.8014 27.6106 41.6894C30.4987 44.5775 34.4157 46.2 38.5001 46.2V46.2Z" fill="black"/>
</svg>
